<?xml version="1.0" encoding="iso-8859-1"?>
<!-- Generator: Adobe Illustrator 19.0.0, SVG Export Plug-In . SVG Version: 6.00 Build 0)  -->
<svg version="1.1" id="Capa_1" xmlns="http://www.w3.org/2000/svg" xmlns:xlink="http://www.w3.org/1999/xlink" x="0px" y="0px"
	 viewBox="0 0 470 470" style="enable-background:new 0 0 470 470;" xml:space="preserve">
<g>
	<path d="M401.17,68.83C356.785,24.444,297.771,0,235,0S113.215,24.444,68.83,68.83C24.444,113.215,0,172.229,0,235
		s24.444,121.785,68.83,166.17C113.215,445.556,172.229,470,235,470s121.785-24.444,166.17-68.83
		C445.556,356.785,470,297.771,470,235S445.556,113.215,401.17,68.83z M235,455c-121.309,0-220-98.691-220-220S113.691,15,235,15
		s220,98.691,220,220S356.309,455,235,455z"/>
	<path d="M235,150.861c-4.142,0-7.5,3.358-7.5,7.5v30c0,4.142,3.358,7.5,7.5,7.5s7.5-3.358,7.5-7.5v-30
		C242.5,154.219,239.142,150.861,235,150.861z"/>
	<path d="M379.791,326.629c4.142,0,7.5-3.358,7.5-7.5s-3.358-7.5-7.5-7.5h-20c-4.142,0-7.5,3.358-7.5,7.5s3.358,7.5,7.5,7.5H379.791
		z"/>
	<path d="M337.291,319.129c0-4.142-3.358-7.5-7.5-7.5H235c-4.142,0-7.5,3.358-7.5,7.5s3.358,7.5,7.5,7.5h94.791
		C333.933,326.629,337.291,323.271,337.291,319.129z"/>
	<path d="M438.458,260.134c0.017-0.126,0.033-0.252,0.044-0.379C439.483,251.637,440,243.378,440,235c0-1.659-0.02-3.315-0.06-4.968
		c0.036-0.297,0.06-0.597,0.06-0.903c0-0.498-0.051-0.984-0.144-1.455c-1.786-50.654-22.043-98.378-57.524-135.077
		c-2.732-2.826-7.183-3.063-10.198-0.544c-6.903,5.762-12.151,13.003-15.415,21.202c-1.31-0.114-2.625-0.171-3.941-0.171
		c-24.966,0-45.278,20.312-45.278,45.278c0,4.142,3.358,7.5,7.5,7.5s7.5-3.358,7.5-7.5c0-16.695,13.583-30.278,30.278-30.278
		c2.456,0,4.905,0.296,7.278,0.881c4.001,0.984,8.043-1.438,9.062-5.427c1.413-5.534,4.005-10.603,7.61-14.944
		c28.208,31.562,44.878,71.059,47.806,113.035h-48.356c-4.142,0-7.5,3.358-7.5,7.5s3.358,7.5,7.5,7.5h48.803
		c-0.043,5.049-0.284,10.051-0.715,15h-70.587v-63.268c0-1.989-0.79-3.897-2.197-5.303c-1.406-1.407-3.314-2.197-5.303-2.197
		l-53.677,0v-72.5c0-4.142-3.358-7.5-7.5-7.5s-7.5,3.358-7.5,7.5v12.5h-18.333v-12.5c0-4.142-3.358-7.5-7.5-7.5s-7.5,3.358-7.5,7.5
		v12.5h-18.333v-12.5c0-4.142-3.358-7.5-7.5-7.5s-7.5,3.358-7.5,7.5v12.5H192.5v-12.5c0-4.142-3.358-7.5-7.5-7.5s-7.5,3.358-7.5,7.5
		v143.268H155c-18.11,0-33.261,12.904-36.745,30H105c-4.142,0-7.5,3.358-7.5,7.5s3.358,7.5,7.5,7.5h50c4.142,0,7.5-3.358,7.5-7.5
		s-3.358-7.5-7.5-7.5h-21.21c3.096-8.729,11.432-15,21.21-15h267.353c-0.853,5.07-1.902,10.074-3.149,15H185
		c-4.142,0-7.5,3.358-7.5,7.5s3.358,7.5,7.5,7.5h229.734C389.08,371.237,318.204,425,235,425c-42.899,0-82.515-14.3-114.354-38.371
		H255c4.142,0,7.5-3.358,7.5-7.5s-3.358-7.5-7.5-7.5h-13.255c-3.484-17.096-18.635-30-36.745-30H77.818
		c-20.418-30.003-32.483-66.126-32.811-104.999L155,236.629c4.142,0,7.5-3.358,7.5-7.5s-3.358-7.5-7.5-7.5l-79.059,0.001
		c3.345-13.079,15.229-22.778,29.337-22.778c2.458,0,4.906,0.296,7.276,0.881c4.002,0.986,8.044-1.437,9.063-5.426
		c4.045-15.844,17.709-27.396,34.001-28.747c4.128-0.342,7.197-3.966,6.855-8.094c-0.343-4.128-3.952-7.187-8.094-6.855
		c-20.341,1.687-37.738,14.807-45.157,33.412c-1.311-0.114-2.627-0.171-3.944-0.171c-22.411,0-41.06,16.37-44.645,37.779l-23.132,0
		c-4.057,0-7.378,3.226-7.497,7.28c-0.042,1.445-0.029,2.845-0.016,4.199C29.994,233.739,30,234.369,30,235
		c0,44.015,13.947,84.831,37.648,118.271c0.03,0.045,0.062,0.089,0.093,0.134C104.918,405.768,166.036,440,235,440
		c93.49,0,172.559-62.907,197.112-148.615c0.007-0.023,0.014-0.046,0.021-0.069C435.022,281.217,437.148,270.8,438.458,260.134z
		 M338.677,195.861v55.768H292.5v-55.768L338.677,195.861z M192.5,135.861h85v115.768h-85V135.861z M89.142,356.629H205
		c9.778,0,18.114,6.271,21.21,15H103.114C98.196,366.881,93.527,361.878,89.142,356.629z"/>
	<path d="M69.24,251.629c-4.142,0-7.5,3.358-7.5,7.5s3.358,7.5,7.5,7.5h33.814c4.142,0,7.5-3.358,7.5-7.5s-3.358-7.5-7.5-7.5H69.24z
		"/>
	<path d="M285,371.629c-4.142,0-7.5,3.358-7.5,7.5s3.358,7.5,7.5,7.5h35.247c4.142,0,7.5-3.358,7.5-7.5s-3.358-7.5-7.5-7.5H285z"/>
</g>
<g>
</g>
<g>
</g>
<g>
</g>
<g>
</g>
<g>
</g>
<g>
</g>
<g>
</g>
<g>
</g>
<g>
</g>
<g>
</g>
<g>
</g>
<g>
</g>
<g>
</g>
<g>
</g>
<g>
</g>
</svg>
