<?xml version="1.0" encoding="iso-8859-1"?>
<!-- Generator: Adobe Illustrator 19.0.0, SVG Export Plug-In . SVG Version: 6.00 Build 0)  -->
<svg version="1.1" id="Layer_1" xmlns="http://www.w3.org/2000/svg" xmlns:xlink="http://www.w3.org/1999/xlink" x="0px" y="0px"
	 viewBox="0 0 512.072 512.072" style="enable-background:new 0 0 512.072 512.072;" xml:space="preserve">
<g>
	<g>
		<path d="M507.016,150.962c-3.157-1.963-7.083-2.133-10.368-0.469c-1.216,0.619-122.859,60.949-208.811,62.869
			c-2.731,0.064-5.355,1.195-7.296,3.115c-23.723,23.723-56.597,46.357-90.624,62.699c5.099-37.248-2.88-77.568-8.853-100.501
			c-0.021-0.107-0.085-0.192-0.128-0.277c-4.843-28.117-76.437-29.035-84.864-29.035c-8.363,0-78.784,0.896-84.757,28.288
			c-0.149,0.384-0.533,0.619-0.64,1.045C0.627,217.329-11.32,288.476,21.427,330.823c16.363,21.163,41.344,31.893,74.24,31.893
			h0.405c20.096,0,37.568-4.245,51.925-12.629c20.203-4.779,42.368-13.461,65.771-22.635c32.96-12.907,67.051-26.261,96.533-28.8
			c2.517-0.213,4.864-1.301,6.635-3.093c29.739-29.739,82.581-47.467,187.861-82.752c4.352-1.451,7.275-5.525,7.275-10.112v-42.667
			C512.073,156.337,510.152,152.903,507.016,150.962z M96.072,320.028c-26.091,0-35.819-8.747-40.896-15.339
			c-3.584-4.672-2.731-11.371,1.92-14.976c4.693-3.584,11.371-2.709,14.976,1.92c1.344,1.749,5.419,7.04,23.595,7.04
			c5.888,0,10.859,4.779,10.859,10.667S101.96,320.028,96.072,320.028z M154.696,183.153c-0.192,0.085-0.491,0.171-0.704,0.277
			c-1.344,0.555-2.837,1.131-4.544,1.685c-0.597,0.192-1.301,0.384-1.941,0.576c-1.493,0.448-3.072,0.896-4.821,1.344
			c-0.896,0.213-1.856,0.427-2.795,0.64c-1.707,0.384-3.52,0.768-5.44,1.109c-1.131,0.213-2.283,0.405-3.477,0.597
			c-2.005,0.32-4.16,0.619-6.357,0.896c-1.301,0.171-2.581,0.341-3.947,0.469c-2.453,0.256-5.077,0.448-7.744,0.64
			c-1.301,0.085-2.539,0.213-3.904,0.277c-4.117,0.213-8.405,0.341-12.949,0.341s-8.811-0.128-12.907-0.341
			c-1.728-0.085-3.328-0.235-4.971-0.341c-2.069-0.149-4.117-0.299-6.059-0.491c-2.752-0.277-5.419-0.597-7.893-0.96
			c-0.277-0.043-0.576-0.085-0.875-0.107c-14.976-2.219-25.003-5.675-29.461-8.427c7.168-4.416,28.715-10.645,62.165-10.645
			c33.408,0,54.933,6.208,62.144,10.645C157.278,181.916,156.126,182.535,154.696,183.153z"/>
	</g>
</g>
<g>
</g>
<g>
</g>
<g>
</g>
<g>
</g>
<g>
</g>
<g>
</g>
<g>
</g>
<g>
</g>
<g>
</g>
<g>
</g>
<g>
</g>
<g>
</g>
<g>
</g>
<g>
</g>
<g>
</g>
</svg>
